<?xml version="1.0" encoding="UTF-8"?>
<svg id="_レイヤー_1" data-name="レイヤー 1" xmlns="http://www.w3.org/2000/svg" viewBox="0 0 1039.19 1165.53">
  <defs>
    <style>
      .cls-1 {
        stroke: #fff;
        stroke-linecap: round;
        stroke-miterlimit: 10;
        stroke-width: 7px;
      }

      .cls-1, .cls-2 {
        fill: #fff;
      }

      .cls-3 {
        fill: #899ccf;
      }

      .cls-3, .cls-2, .cls-4 {
        stroke-width: 0px;
      }

      .cls-4 {
        fill: #2866b1;
      }
    </style>
  </defs>
  <path class="cls-4" d="M984.14,913.96l-410.5,237c-33.65,19.43-75.11,19.43-108.77,0L54.38,913.96C20.73,894.53,0,858.62,0,819.77v-474c0-38.86,20.73-74.76,54.38-94.19L464.88,14.57c33.65-19.43,75.11-19.43,108.77,0l410.5,237c33.65,19.43,54.38,55.34,54.38,94.19v474c0,38.86-20.73,74.76-54.38,94.19Z"/>
  <path class="cls-3" d="M.66,820.22v-474c0-38.86,20.73-74.76,54.38-94.19L465.54,15.02c33.65-19.43,75.11-19.43,108.77,0l410.5,237c33.65,19.43,54.38,55.34,54.38,94.19"/>
  <path class="cls-2" d="M79.34,928.04v-410.76h168.44c118.38,0,176.56,82.53,176.56,165.06-.68,82.53-60.21,165.06-177.24,165.06h-86.59v127.63l-81.18-47ZM244.4,779.09c65.62,0,94.71-51.41,94.71-98.09s-30.44-95.38-94.03-95.38h-84.56v193.47h83.88Z"/>
  <path class="cls-2" d="M408.2,918.76v-21.77h32.89c-2.62-11.23-6.44-26.35-9.3-37.81h-17.88v-21.54h49.81v-22.92h24.31v22.69h49.1v21.77h-15.97c-2.62,11.69-6.2,26.81-9.3,37.81h29.79v21.77h-133.47ZM449.19,1016.39v14.21h-24.55v-95.79h104.39v81.81l-79.84-.23ZM504.49,957.03h-55.3v37.81h55.3v-37.81ZM487.81,896.99c3.34-11.92,6.67-26.35,9.3-37.81h-40.99c3.1,12.6,6.67,26.81,9.06,37.81h22.64ZM549.06,1031.29v-207.86h80.32v19.48l-22.88,58.67c17.16,21.31,26.22,42.85,26.22,60.73,0,22.46-14.54,38.27-45.05,39.42l-10.49-24.98c16.92-.46,31.46-3.21,31.46-18.56,0-11.46-7.87-28.88-25.74-54.54l21.45-58.67h-31.22v186.32h-24.07Z"/>
  <line class="cls-1" x1="420.7" y1="799.04" x2="1033.7" y2="799.04"/>
  <g>
    <path class="cls-2" d="M431.48,752.22h5.22l-.44,3.14c.58-.91,1.52-1.95,3.05-2.79,1.45-.77,2.76-1.05,4.35-1.05,1.81,0,3.19.42,4.42,1.19l-3.05,4.53c-.58-.42-1.52-.98-3.12-.98-1.45,0-2.83.42-3.99,1.53-2.1,1.95-2.61,5.23-2.97,8.09l-1.96,15.27h-5.22l3.7-28.94Z"/>
    <path class="cls-2" d="M456.72,778.03c-2.1-2.16-3.84-5.44-3.84-10.11,0-4.18,1.45-8.51,5.44-12.06,3.34-2.93,7.18-4.32,12.04-4.32s8.49,1.53,11.02,3.97c3.05,2.93,3.7,6.49,3.7,9.48,0,6.28-2.68,10.32-5.08,12.55-3.84,3.63-8.49,4.46-12.55,4.46-4.28,0-7.83-1.05-10.73-3.97ZM462.08,759.2c-2.54,2.37-3.84,5.58-3.84,9.07,0,3.28,1.45,5.37,2.61,6.55,1.09,1.12,3.26,2.72,6.96,2.72s6.45-1.53,8.2-3.35c2.25-2.3,3.63-5.79,3.63-9.13,0-2.93-1.16-5.09-2.47-6.42-1.52-1.53-3.92-2.65-6.89-2.65-2.03,0-5.29.49-8.2,3.21Z"/>
    <path class="cls-2" d="M521.7,752.22h5.22l-3.55,28.24c-.58,4.53-1.16,9.07-4.71,12.55-1.96,1.95-5.58,4.18-11.75,4.18-5.22,0-8.34-1.67-10.15-3.42-3.26-3.21-3.41-7.67-3.41-9.41v-.42h5.15v.28c0,2.02.22,4.53,2.39,6.49,1.89,1.67,4.28,2.02,6.24,2.02,3.92,0,6.31-1.32,7.62-2.58,2.68-2.51,3.05-6.21,3.34-8.86l.44-4.18c-.65.98-1.96,2.51-4.28,3.63-1.67.77-3.7,1.25-5.8,1.25-4.28,0-7.54-1.25-9.94-3.7-3.12-3.07-3.77-6.83-3.77-9.83,0-4.67,1.67-9.55,4.86-12.69,2.1-2.09,5.58-4.25,11.17-4.25,1.52,0,4.35.14,6.67,1.39,1.23.63,2.68,1.74,3.77,3.42l.51-4.11ZM504.07,758.64c-2.47,2.23-3.92,5.58-3.92,9.48,0,3.07,1.09,5.58,2.68,7.11,1.74,1.67,3.92,2.3,6.16,2.3,3.63,0,6.02-1.33,7.4-2.51,2.61-2.3,3.84-6.42,3.84-9.62,0-2.37-.87-5.16-2.61-6.97-1.31-1.33-3.26-2.44-6.31-2.44-2.83,0-5.22.84-7.25,2.65Z"/>
    <path class="cls-2" d="M540.47,752.22h5.22l-.44,3.14c.58-.91,1.52-1.95,3.05-2.79,1.45-.77,2.76-1.05,4.35-1.05,1.81,0,3.19.42,4.42,1.19l-3.05,4.53c-.58-.42-1.52-.98-3.12-.98-1.45,0-2.83.42-3.99,1.53-2.1,1.95-2.61,5.23-2.97,8.09l-1.96,15.27h-5.22l3.7-28.94Z"/>
    <path class="cls-2" d="M588.85,752.22h5.22l-3.7,28.94h-5.22l.51-4.04c-.94,1.26-2.25,2.58-3.77,3.42-2.18,1.19-4.42,1.46-6.24,1.46-3.63,0-6.96-.7-9.79-3.56-2.25-2.3-3.92-5.58-3.92-10.32,0-5.93,2.39-10.25,5.22-12.83,2.83-2.58,6.31-3.77,10.81-3.77,2.03,0,4.21.28,6.38,1.39,1.81.91,3.05,2.02,3.99,3.42l.51-4.11ZM571.15,758.71c-2.25,2.02-3.84,5.51-3.84,9.07,0,2.86,1.09,5.79,3.12,7.6,1.81,1.67,3.99,2.16,6.09,2.16,3.26,0,5.73-1.05,7.47-2.86,2.18-2.16,3.41-5.86,3.41-9.41,0-3.9-1.81-6.07-2.83-6.97-1.23-1.12-3.19-2.3-6.17-2.3-3.34,0-5.73,1.33-7.25,2.72Z"/>
    <path class="cls-2" d="M607.63,752.22h5.22l-.36,3.07c.73-1.05,1.6-1.95,2.9-2.65,1.6-.84,2.97-1.12,4.64-1.12s3.63.35,5,1.19c1.31.77,2.47,2.23,3.05,3.49.8-1.4,1.96-2.51,3.19-3.28,1.74-1.05,3.7-1.39,5.66-1.39,2.47,0,5,.56,7.04,2.44,1.89,1.74,2.39,3.83,2.39,5.93,0,1.53-.29,3.28-.58,5.79l-1.96,15.48h-5.22l2.03-15.48c.22-1.6.44-3,.44-4.32,0-.98-.14-2.72-1.45-3.98-.58-.56-1.74-1.39-3.77-1.39s-3.48.77-4.5,1.67c-1.88,1.74-2.47,4.32-2.83,7.39l-2.03,16.11h-5.22l2.18-17.15c.29-2.02.65-4.81-1.23-6.62-.73-.77-1.96-1.39-3.84-1.39-1.67,0-3.12.56-4.28,1.67-2.1,2.02-2.61,5.23-2.9,7.74l-2.03,15.76h-5.22l3.7-28.94Z"/>
    <path class="cls-2" d="M660.93,752.22h5.22l-.36,3.07c.73-1.05,1.6-1.95,2.9-2.65,1.6-.84,2.97-1.12,4.64-1.12s3.63.35,5,1.19c1.31.77,2.47,2.23,3.05,3.49.8-1.4,1.96-2.51,3.19-3.28,1.74-1.05,3.7-1.39,5.66-1.39,2.47,0,5,.56,7.04,2.44,1.89,1.74,2.39,3.83,2.39,5.93,0,1.53-.29,3.28-.58,5.79l-1.96,15.48h-5.22l2.03-15.48c.22-1.6.44-3,.44-4.32,0-.98-.14-2.72-1.45-3.98-.58-.56-1.74-1.39-3.77-1.39s-3.48.77-4.5,1.67c-1.88,1.74-2.47,4.32-2.83,7.39l-2.03,16.11h-5.22l2.18-17.15c.29-2.02.65-4.81-1.23-6.62-.73-.77-1.96-1.39-3.84-1.39-1.67,0-3.12.56-4.28,1.67-2.1,2.02-2.61,5.23-2.9,7.74l-2.03,15.76h-5.22l3.7-28.94Z"/>
    <path class="cls-2" d="M719.45,752.22l-3.7,28.94h-5.22l3.7-28.94h5.22ZM715.53,739.05c.58-.7,1.67-1.33,3.12-1.33,1.02,0,1.74.28,2.32.84.65.63.94,1.39.94,2.3,0,1.25-.51,2.16-1.16,2.79-.94.98-2.1,1.19-2.9,1.19-.94,0-1.74-.28-2.47-.98-.58-.56-.87-1.33-.87-2.16,0-1.05.43-2.02,1.01-2.65Z"/>
    <path class="cls-2" d="M733.01,752.22h5.22l-.44,3.35c.15-.21,1.45-1.74,3.05-2.72,1.89-1.12,3.92-1.33,5.58-1.33,2.18,0,5,.42,7.18,2.51,2.03,1.95,2.39,4.32,2.39,6.49,0,1.46-.22,3.07-.44,4.81l-2.03,15.83h-5.22l1.81-14.43c.15-1.19.44-3.63.44-4.95,0-1.19-.15-3-1.52-4.32-.87-.84-2.32-1.46-4.21-1.46-2.32,0-4.21.84-5.37,2.02-2.03,2.02-2.61,5.44-2.97,8.02l-1.96,15.13h-5.22l3.7-28.94Z"/>
    <path class="cls-2" d="M793.78,752.22h5.22l-3.55,28.24c-.58,4.53-1.16,9.07-4.71,12.55-1.96,1.95-5.58,4.18-11.75,4.18-5.22,0-8.34-1.67-10.15-3.42-3.26-3.21-3.41-7.67-3.41-9.41v-.42h5.15v.28c0,2.02.22,4.53,2.39,6.49,1.89,1.67,4.28,2.02,6.24,2.02,3.92,0,6.31-1.32,7.62-2.58,2.68-2.51,3.05-6.21,3.34-8.86l.43-4.18c-.65.98-1.96,2.51-4.28,3.63-1.67.77-3.7,1.25-5.8,1.25-4.28,0-7.54-1.25-9.94-3.7-3.12-3.07-3.77-6.83-3.77-9.83,0-4.67,1.67-9.55,4.86-12.69,2.1-2.09,5.58-4.25,11.17-4.25,1.52,0,4.35.14,6.67,1.39,1.23.63,2.68,1.74,3.77,3.42l.51-4.11ZM776.16,758.64c-2.47,2.23-3.92,5.58-3.92,9.48,0,3.07,1.09,5.58,2.68,7.11,1.74,1.67,3.92,2.3,6.17,2.3,3.63,0,6.02-1.33,7.4-2.51,2.61-2.3,3.84-6.42,3.84-9.62,0-2.37-.87-5.16-2.61-6.97-1.31-1.33-3.26-2.44-6.31-2.44-2.83,0-5.22.84-7.25,2.65Z"/>
    <path class="cls-2" d="M872.68,744.9c-1.3-1.39-3.12-3-5.66-4.25-2.83-1.39-5.37-1.88-8.2-1.88-6.31,0-11.82,2.3-15.74,6.07-3.92,3.84-6.31,9.27-6.31,14.92s2.39,9.83,5.08,12.55c3.48,3.49,7.54,4.81,12.18,4.81,3.7,0,6.82-.77,9.21-1.95,1.96-.98,4.42-2.65,6.09-4.11l-.8,6.42c-1.89,1.26-4.42,2.65-6.16,3.28-2.18.77-5.66,1.25-8.7,1.25-7.11,0-12.55-2.3-16.46-6.14-4.42-4.32-6.09-9.62-6.09-15.55,0-10.25,4.93-16.39,8.12-19.39,5.8-5.44,12.47-7.04,19.58-7.04,2.76,0,6.38.35,9.5,1.6,1.52.63,3.55,1.81,5.15,3l-.8,6.42Z"/>
    <path class="cls-2" d="M892.04,730.33l-6.53,50.83h-5.22l6.53-50.83h5.22Z"/>
    <path class="cls-2" d="M905.96,767.5c-.14,1.33-.29,2.37-.29,3.77,0,1.88.22,3.49,1.81,4.81,1.16.98,2.83,1.46,4.5,1.46,2.1,0,3.77-.77,4.86-1.74,1.74-1.67,2.1-4.25,2.54-7.53l2.03-16.04h5.22l-2.1,16.6c-.51,3.83-1.01,7.53-3.7,10.18-2.76,2.65-6.46,3-8.7,3-4.06,0-6.82-.98-8.78-2.65-2.32-1.95-2.97-4.39-2.97-7.32,0-1.39.29-3.7.43-4.95l1.89-14.85h5.22l-1.96,15.27Z"/>
    <path class="cls-2" d="M941.71,781.16h-5.22l6.53-50.83h5.22l-3.34,25.94c1.02-1.33,2.47-2.58,3.92-3.35,1.81-.98,3.7-1.39,6.02-1.39,3.48,0,7.04.77,9.86,3.42,3.41,3.21,3.92,7.46,3.92,9.83,0,5.16-1.81,9.97-5.22,13.18-3.41,3.21-7.11,4.04-10.88,4.04-2.03,0-4.42-.28-6.67-1.53-2.03-1.19-3.19-2.79-3.63-3.49l-.51,4.18ZM959.41,774.96c2.61-2.44,3.84-6.35,3.84-9.34s-1.16-5.51-2.76-7.04c-1.6-1.6-3.92-2.58-6.53-2.58-1.96,0-4.64.49-7.11,2.79-2.32,2.16-3.77,5.51-3.77,8.79,0,3.07,1.16,5.72,3.05,7.53,1.38,1.32,3.48,2.44,6.46,2.44,3.19,0,5.44-1.33,6.82-2.58Z"/>
  </g>
</svg>